Coordinates
version=1
nRows=17
nColumns=40
inDegrees=yes

Units are S.I. units (second, meters, Newtons, ...)
Angles are in degrees.

endheader
time	pelvis_tilt	pelvis_list	pelvis_rotation	pelvis_tx	pelvis_ty	pelvis_tz	hip_flexion_r	hip_adduction_r	hip_rotation_r	knee_angle_r	knee_angle_r_beta	ankle_angle_r	subtalar_angle_r	mtp_angle_r	hip_flexion_l	hip_adduction_l	hip_rotation_l	knee_angle_l	knee_angle_l_beta	ankle_angle_l	subtalar_angle_l	mtp_angle_l	lumbar_extension	lumbar_bending	lumbar_rotation	arm_flex_r	arm_add_r	arm_rot_r	elbow_flex_r	pro_sup_r	wrist_flex_r	wrist_dev_r	arm_flex_l	arm_add_l	arm_rot_l	elbow_flex_l	pro_sup_l	wrist_flex_l	wrist_dev_l
     31.71778571	     -2.97778472	     -3.03570489	     -4.57761786	      0.93080911	      0.92418451	      0.45476959	     25.87451507	     -0.66581901	    -12.51592342	     18.31698156	     18.31698156	      3.71670878	     -2.08580856	      2.60492758	      1.17798592	     -3.93696953	     -8.93111623	     15.97711115	     15.97711115	     18.35359096	    -10.19607621	     -4.38986954	     -9.28471967	      4.74039245	      1.73531909	    -14.55849456	    -14.10452854	     -4.30255420	     25.14476141	     46.92992662	      0.00000000	      0.00000000	      8.85865812	    -15.76120847	    -10.83256854	     78.93867230	     46.98666165	      0.00000000	      0.00000000
     31.73057143	     -3.10085232	     -3.05131072	     -4.65110124	      0.93287251	      0.92268529	      0.45724030	     25.73938881	     -0.43235299	    -12.64505820	     18.30273587	     18.30273587	      3.64863360	     -2.05592492	      2.54722827	      0.61532949	     -4.06522350	     -8.95284257	     15.85017169	     15.85017169	     18.70978957	    -10.21672801	     -4.42856783	     -8.87958522	      4.79520020	      1.64373815	    -14.98692903	    -14.02728232	     -4.32091698	     25.03584597	     46.93017398	      0.00000000	      0.00000000	      9.30171614	    -16.01240427	    -11.07009696	     79.30927909	     47.01489937	      0.00000000	      0.00000000
     31.74335714	     -2.99351561	     -3.07994750	     -4.75359752	      0.93523196	      0.92159214	      0.45983266	     25.23097408	     -0.20095361	    -12.70959888	     18.28543578	     18.28543578	      2.70591827	     -2.34330091	     -0.17668675	     -0.28239334	     -4.22333056	     -9.27656964	     15.66684899	     15.66684899	     19.57524326	     -9.50874075	     -3.35210946	     -8.85306015	      4.79635295	      1.56325509	    -15.53045541	    -13.92310134	     -4.98875835	     25.98679905	     46.89387853	      0.00000000	      0.00000000	      9.06620360	    -15.62477690	    -12.73729778	     81.63385059	     47.24175718	      0.00000000	      0.00000000
     31.75614286	     -2.98958633	     -3.20206588	     -4.77792352	      0.93744419	      0.92043838	      0.46246189	     25.04402595	      0.03904753	    -12.74944521	     18.93819276	     18.93819276	      2.72558537	     -2.65614719	     -0.50506957	     -0.94186444	     -4.48038073	     -9.25537734	     15.63547123	     15.63547123	     19.90053928	     -9.53824325	     -3.29461409	     -8.62790655	      4.96913720	      1.62113281	    -15.71422857	    -13.80609676	     -4.99334430	     25.91823903	     46.89192645	      0.00000000	      0.00000000	      9.48831387	    -15.68824517	    -12.93824586	     82.06597624	     47.27104246	      0.00000000	      0.00000000
     31.76892857	     -2.99332190	     -3.18617428	     -4.83098309	      0.93953003	      0.91932481	      0.46519330	     25.02066851	      0.16047279	    -12.35320996	     19.94095027	     19.94095027	      2.71486720	     -3.49414370	     -1.40434869	     -1.48604007	     -4.61966391	     -9.29590178	     15.78473884	     15.78473884	     20.27900084	     -9.49504807	     -2.87584528	     -8.44774957	      4.95943738	      1.82002251	    -15.81422733	    -13.62962426	     -5.08121776	     26.00199254	     46.88529557	      0.00000000	      0.00000000	      9.79331596	    -15.46379056	    -13.43972662	     83.06463709	     47.33817751	      0.00000000	      0.00000000
     31.78171429	     -2.95126149	     -3.32587464	     -4.80143034	      0.94159043	      0.91852315	      0.46798030	     24.74491333	      0.48100951	    -11.94539459	     20.60915037	     20.60915037	      2.16426532	     -4.78249136	     -3.67982513	     -1.84751640	     -4.98982233	     -9.27402168	     16.41669875	     16.41669875	     21.17034011	     -9.27734952	     -1.29001945	     -8.36197040	      5.13684681	      1.34319842	    -15.38946147	    -13.55448417	     -5.45059721	     26.31064335	     46.86886106	      0.00000000	      0.00000000	      9.44085830	    -15.33506531	    -14.78058629	     84.47593566	     47.50919981	      0.00000000	      0.00000000
     31.79450000	     -2.81318487	     -3.48118038	     -4.75026451	      0.94353613	      0.91814552	      0.47071511	     24.44505563	      0.70146401	    -11.82865725	     21.54518806	     21.54518806	      2.55183970	     -5.18574424	     -4.01624936	     -2.29033654	     -5.35753612	     -9.15080261	     16.99132775	     16.99132775	     21.22437697	     -9.56001050	     -1.26062728	     -8.39408166	      5.34604214	      1.43751805	    -15.00326263	    -13.42696766	     -5.42539074	     26.39039988	     46.86443001	      0.00000000	      0.00000000	      9.76832800	    -15.28409867	    -14.84273819	     84.66402412	     47.52257257	      0.00000000	      0.00000000
     31.80728571	     -2.89788678	     -3.49517553	     -4.67219602	      0.94504772	      0.91754787	      0.47341577	     24.49889779	      0.85921627	    -11.32214353	     22.59190296	     22.59190296	      2.98615593	     -6.29434667	     -4.30369443	     -2.04589476	     -5.64798552	     -8.84370339	     18.30305776	     18.30305776	     21.30261668	    -10.16585676	     -1.03412366	     -8.20106248	      5.41015688	      1.47724600	    -14.51148629	    -13.30131573	     -5.43025915	     26.38235860	     46.85959495	      0.00000000	      0.00000000	      9.97117471	    -15.06012543	    -15.17901621	     85.17781719	     47.57122981	      0.00000000	      0.00000000
     31.82007143	     -2.83734288	     -3.59904052	     -4.57250680	      0.94650494	      0.91755073	      0.47616803	     24.23246504	      1.08412357	    -11.05272354	     23.35281125	     23.35281125	      3.50099841	     -6.90110263	     -4.47144557	     -1.82381037	     -6.05536491	     -8.52628905	     19.85439016	     19.85439016	     21.18287386	    -10.86722855	     -0.98240734	     -8.21878293	      5.56951678	      1.46534065	    -13.74237419	    -13.15713963	     -5.41643058	     26.50054816	     46.85329664	      0.00000000	      0.00000000	     10.13321156	    -14.89824881	    -15.39525511	     85.46911253	     47.60314509	      0.00000000	      0.00000000
     31.83285714	     -2.65976074	     -3.68873788	     -4.43380975	      0.94780176	      0.91806329	      0.47880215	     23.72704920	      1.27376342	    -10.90410110	     23.87818428	     23.87818428	      4.09098758	     -7.26298040	     -4.61471553	     -1.54654983	     -6.45959735	     -8.17499103	     21.67901395	     21.67901395	     20.81893169	    -11.61453600	     -1.07440305	     -8.43305855	      5.70454449	      1.50564457	    -12.86594187	    -13.08392035	     -5.39655626	     26.70387257	     46.84730542	      0.00000000	      0.00000000	     10.34139404	    -14.75154682	    -15.47509217	     85.62119190	     47.61848356	      0.00000000	      0.00000000
     31.84564286	     -2.63624882	     -3.79252456	     -4.25416060	      0.94876993	      0.91855161	      0.48137253	     23.31430164	      1.49069435	    -10.84246861	     24.20293058	     24.20293058	      4.67706719	     -7.57961546	     -4.66045804	     -0.70350411	     -6.93444577	     -7.68683416	     24.16421100	     24.16421100	     20.25266488	    -12.65956089	     -1.31577490	     -8.48129463	      5.89950246	      1.49670578	    -11.85684015	    -12.99136991	     -5.36890768	     26.94180620	     46.83989588	      0.00000000	      0.00000000	     10.47038110	    -14.52957134	    -15.52083647	     85.74843293	     47.63135455	      0.00000000	      0.00000000
     31.85842857	     -2.75645916	     -3.83862974	     -4.04972634	      0.94940407	      0.91909465	      0.48377083	     23.02455451	      1.65831174	    -10.78632189	     24.42333158	     24.42333158	      5.52483383	     -7.72455931	     -3.71090312	      0.53576400	     -7.32803360	     -7.01370646	     26.95031210	     26.95031210	     19.10472227	    -14.15299854	     -2.26399262	     -8.38905091	      6.02111918	      1.05519302	    -10.26843262	    -12.90413719	     -5.14989932	     26.65417244	     46.81181235	      0.00000000	      0.00000000	      9.96163347	    -14.24194643	    -16.22728480	     86.26090601	     47.74348041	      0.00000000	      0.00000000
     31.87121429	     -2.69457690	     -3.95240498	     -3.82289168	      0.94993601	      0.92000667	      0.48613218	     22.38109439	      1.85464400	    -10.98296213	     24.33226378	     24.33226378	      6.05227390	     -7.61459308	     -3.83348325	      1.77948182	     -7.84093415	     -6.48832833	     30.10020668	     30.10020668	     18.11324843	    -15.19058428	     -2.56627401	     -8.56097395	      6.22077414	      1.17345022	     -9.09748207	    -12.88907818	     -5.10214556	     27.05622492	     46.79700339	      0.00000000	      0.00000000	     10.12439024	    -13.98573241	    -16.00869805	     86.20280691	     47.73607144	      0.00000000	      0.00000000
     31.88400000	     -2.74371113	     -4.04984405	     -3.57687484	      0.95019893	      0.92080620	      0.48832675	     21.81069357	      2.03336934	    -11.24436446	     24.10176308	     24.10176308	      6.51299244	     -7.41938334	     -3.91439922	      3.38660170	     -8.33346546	     -5.88978287	     33.57862041	     33.57862041	     16.90989433	    -16.28203323	     -2.83445559	     -8.60135321	      6.42067982	      1.26380304	     -7.86800301	    -12.89618106	     -5.05386113	     27.53526686	     46.77887304	      0.00000000	      0.00000000	     10.12410300	    -13.70041992	    -15.72877325	     86.08192041	     47.72306605	      0.00000000	      0.00000000
     31.89678571	     -2.72454100	     -4.16646507	     -3.33617373	      0.95025441	      0.92172014	      0.49048086	     21.14948795	      2.22710355	    -11.55783593	     23.81132324	     23.81132324	      6.90857164	     -7.15548223	     -3.98861541	      5.03822489	     -8.85074456	     -5.34355970	     37.16733774	     37.16733774	     15.58551128	    -17.20473343	     -2.91583317	     -8.75279075	      6.60926926	      1.40061430	     -6.51529800	    -12.93735341	     -5.00990803	     28.08810018	     46.76015085	      0.00000000	      0.00000000	     10.16867513	    -13.40514944	    -15.41833055	     85.97999550	     47.70690837	      0.00000000	      0.00000000
     31.90957143	     -2.84524801	     -4.30700532	     -3.05431198	      0.95012710	      0.92236643	      0.49248628	     20.59560040	      2.43461332	    -11.97936070	     23.41514880	     23.41514880	      7.26021040	     -6.78671250	     -4.06143227	      7.01107130	     -9.40553916	     -4.75377378	     40.90767543	     40.90767543	     14.29665895	    -17.90433695	     -2.69990803	     -8.73632156	      6.85401087	      1.51328183	     -5.21154667	    -13.04219319	     -4.95763791	     28.69491527	     46.73713443	      0.00000000	      0.00000000	      9.99778880	    -13.10553345	    -15.02901627	     85.80148324	     47.68416464	      0.00000000	      0.00000000
     31.92235714	     -2.91728814	     -4.48223447	     -2.78615415	      0.94985057	      0.92297219	      0.49448556	     19.99998112	      2.67996636	    -12.44217571	     23.02132326	     23.02132326	      7.56929541	     -6.39545692	     -4.13829610	      8.98414776	     -9.99833758	     -4.21528829	     44.57612685	     44.57612685	     13.10540713	    -18.37512687	     -2.10536003	     -8.80701441	      7.09859190	      1.66707363	     -3.78755112	    -13.18294159	     -4.89558741	     29.37180782	     46.71187023	      0.00000000	      0.00000000	      9.85440639	    -12.79989222	    -14.59848770	     85.62611553	     47.65839154	      0.00000000	      0.00000000
